<?xml version="1.0" encoding="UTF-8" standalone="no"?>
<!DOCTYPE svg PUBLIC "-//W3C//DTD SVG 1.1//EN"
 "http://www.w3.org/Graphics/SVG/1.1/DTD/svg11.dtd">
<!-- Generated by graphviz version 2.30.1 (20130530.1935)
 -->
<!-- Title: controllers_diagram Pages: 1 -->
<svg width="635pt" height="540pt"
 viewBox="0.00 0.00 635.38 539.72" xmlns="http://www.w3.org/2000/svg" xmlns:xlink="http://www.w3.org/1999/xlink">
<g id="graph0" class="graph" transform="scale(1 1) rotate(0) translate(4 535.715)">
<title>controllers_diagram</title>
<polygon fill="white" stroke="white" points="-4,5 -4,-535.715 632.375,-535.715 632.375,5 -4,5"/>
<!-- _diagram_info -->
<g id="node1" class="node"><title>_diagram_info</title>
<text text-anchor="start" x="428" y="-279" font-family="Times,serif" font-size="13.00">Controllers diagram</text>
<text text-anchor="start" x="428" y="-263.4" font-family="Times,serif" font-size="13.00">Date: May 30 2013 &#45; 16:53</text>
<text text-anchor="start" x="428" y="-247.8" font-family="Times,serif" font-size="13.00">Migration version: 20130507014339</text>
<text text-anchor="start" x="428" y="-232.2" font-family="Times,serif" font-size="13.00">Generated by RailRoady 1.1.0</text>
<text text-anchor="start" x="428" y="-216.6" font-family="Times,serif" font-size="13.00">http://railroady.prestonlee.com</text>
</g>
<!-- ApplicationController -->
<g id="node2" class="node"><title>ApplicationController</title>
<path fill="none" stroke="black" d="M158.912,-212.126C158.912,-212.126 337.546,-212.126 337.546,-212.126 343.546,-212.126 349.546,-218.126 349.546,-224.126 349.546,-224.126 349.546,-298.526 349.546,-298.526 349.546,-304.526 343.546,-310.526 337.546,-310.526 337.546,-310.526 158.912,-310.526 158.912,-310.526 152.912,-310.526 146.912,-304.526 146.912,-298.526 146.912,-298.526 146.912,-224.126 146.912,-224.126 146.912,-218.126 152.912,-212.126 158.912,-212.126"/>
<text text-anchor="middle" x="248.229" y="-292.526" font-family="Times,serif" font-size="14.00">ApplicationController</text>
<polyline fill="none" stroke="black" points="146.912,-285.726 349.546,-285.726 "/>
<text text-anchor="start" x="154.912" y="-267.726" font-family="Times,serif" font-size="14.00">_one_time_conditions_valid_12?</text>
<polyline fill="none" stroke="black" points="146.912,-260.926 349.546,-260.926 "/>
<polyline fill="none" stroke="black" points="146.912,-236.926 349.546,-236.926 "/>
<text text-anchor="start" x="154.912" y="-218.926" font-family="Times,serif" font-size="14.00">_layout</text>
</g>
<!-- BattlesController -->
<g id="node3" class="node"><title>BattlesController</title>
<path fill="none" stroke="black" d="M347.95,-51.85C347.95,-51.85 436.378,-51.85 436.378,-51.85 442.378,-51.85 448.378,-57.85 448.378,-63.85 448.378,-63.85 448.378,-138.25 448.378,-138.25 448.378,-144.25 442.378,-150.25 436.378,-150.25 436.378,-150.25 347.95,-150.25 347.95,-150.25 341.95,-150.25 335.95,-144.25 335.95,-138.25 335.95,-138.25 335.95,-63.85 335.95,-63.85 335.95,-57.85 341.95,-51.85 347.95,-51.85"/>
<text text-anchor="middle" x="392.164" y="-132.25" font-family="Times,serif" font-size="14.00">BattlesController</text>
<polyline fill="none" stroke="black" points="335.95,-125.45 448.378,-125.45 "/>
<text text-anchor="start" x="343.95" y="-107.45" font-family="Times,serif" font-size="14.00">index</text>
<polyline fill="none" stroke="black" points="335.95,-100.65 448.378,-100.65 "/>
<polyline fill="none" stroke="black" points="335.95,-76.65 448.378,-76.65 "/>
<text text-anchor="start" x="343.95" y="-58.65" font-family="Times,serif" font-size="14.00">_layout</text>
</g>
<!-- ApplicationController&#45;&gt;BattlesController -->
<g id="edge1" class="edge"><title>ApplicationController&#45;&gt;BattlesController</title>
<path fill="none" stroke="black" d="M292.589,-211.93C310.183,-192.339 330.371,-169.858 347.951,-150.283"/>
</g>
<!-- CharactersController -->
<g id="node4" class="node"><title>CharactersController</title>
<path fill="none" stroke="black" d="M46.3364,-0.5C46.3364,-0.5 155.737,-0.5 155.737,-0.5 161.737,-0.5 167.737,-6.5 167.737,-12.5 167.737,-12.5 167.737,-187.7 167.737,-187.7 167.737,-193.7 161.737,-199.7 155.737,-199.7 155.737,-199.7 46.3364,-199.7 46.3364,-199.7 40.3364,-199.7 34.3364,-193.7 34.3364,-187.7 34.3364,-187.7 34.3364,-12.5 34.3364,-12.5 34.3364,-6.5 40.3364,-0.5 46.3364,-0.5"/>
<text text-anchor="middle" x="101.037" y="-181.7" font-family="Times,serif" font-size="14.00">CharactersController</text>
<polyline fill="none" stroke="black" points="34.3364,-174.9 167.737,-174.9 "/>
<text text-anchor="start" x="42.3364" y="-156.9" font-family="Times,serif" font-size="14.00">create</text>
<text text-anchor="start" x="42.3364" y="-140.1" font-family="Times,serif" font-size="14.00">destroy</text>
<text text-anchor="start" x="42.3364" y="-123.3" font-family="Times,serif" font-size="14.00">edit</text>
<text text-anchor="start" x="42.3364" y="-106.5" font-family="Times,serif" font-size="14.00">index</text>
<text text-anchor="start" x="42.3364" y="-89.7" font-family="Times,serif" font-size="14.00">new</text>
<text text-anchor="start" x="42.3364" y="-72.9" font-family="Times,serif" font-size="14.00">show</text>
<text text-anchor="start" x="42.3364" y="-56.1" font-family="Times,serif" font-size="14.00">update</text>
<polyline fill="none" stroke="black" points="34.3364,-49.3 167.737,-49.3 "/>
<polyline fill="none" stroke="black" points="34.3364,-25.3 167.737,-25.3 "/>
<text text-anchor="start" x="42.3364" y="-7.3" font-family="Times,serif" font-size="14.00">_layout</text>
</g>
<!-- ApplicationController&#45;&gt;CharactersController -->
<g id="edge2" class="edge"><title>ApplicationController&#45;&gt;CharactersController</title>
<path fill="none" stroke="black" d="M203.267,-212.077C192.107,-199.853 179.906,-186.49 167.943,-173.386"/>
</g>
<!-- ContestsController -->
<g id="node5" class="node"><title>ContestsController</title>
<path fill="none" stroke="black" d="M12,-345.568C12,-345.568 109.772,-345.568 109.772,-345.568 115.772,-345.568 121.772,-351.568 121.772,-357.568 121.772,-357.568 121.772,-448.768 121.772,-448.768 121.772,-454.768 115.772,-460.768 109.772,-460.768 109.772,-460.768 12,-460.768 12,-460.768 6,-460.768 0,-454.768 0,-448.768 0,-448.768 0,-357.568 0,-357.568 0,-351.568 6,-345.568 12,-345.568"/>
<text text-anchor="middle" x="60.8862" y="-442.768" font-family="Times,serif" font-size="14.00">ContestsController</text>
<polyline fill="none" stroke="black" points="0,-435.968 121.772,-435.968 "/>
<text text-anchor="start" x="8" y="-417.968" font-family="Times,serif" font-size="14.00">index</text>
<text text-anchor="start" x="8" y="-401.168" font-family="Times,serif" font-size="14.00">show</text>
<polyline fill="none" stroke="black" points="0,-394.368 121.772,-394.368 "/>
<polyline fill="none" stroke="black" points="0,-370.368 121.772,-370.368 "/>
<text text-anchor="start" x="8" y="-352.368" font-family="Times,serif" font-size="14.00">_layout</text>
</g>
<!-- ApplicationController&#45;&gt;ContestsController -->
<g id="edge3" class="edge"><title>ApplicationController&#45;&gt;ContestsController</title>
<path fill="none" stroke="black" d="M183.231,-310.538C163.363,-325.58 141.59,-342.065 121.99,-356.905"/>
</g>
<!-- MailerController -->
<g id="node6" class="node"><title>MailerController</title>
<path fill="none" stroke="black" d="M384.564,-360.025C384.564,-360.025 471.427,-360.025 471.427,-360.025 477.427,-360.025 483.427,-366.025 483.427,-372.025 483.427,-372.025 483.427,-446.425 483.427,-446.425 483.427,-452.425 477.427,-458.425 471.427,-458.425 471.427,-458.425 384.564,-458.425 384.564,-458.425 378.564,-458.425 372.564,-452.425 372.564,-446.425 372.564,-446.425 372.564,-372.025 372.564,-372.025 372.564,-366.025 378.564,-360.025 384.564,-360.025"/>
<text text-anchor="middle" x="427.995" y="-440.425" font-family="Times,serif" font-size="14.00">MailerController</text>
<polyline fill="none" stroke="black" points="372.564,-433.625 483.427,-433.625 "/>
<text text-anchor="start" x="380.564" y="-415.625" font-family="Times,serif" font-size="14.00">welcome</text>
<polyline fill="none" stroke="black" points="372.564,-408.825 483.427,-408.825 "/>
<polyline fill="none" stroke="black" points="372.564,-384.825 483.427,-384.825 "/>
<text text-anchor="start" x="380.564" y="-366.825" font-family="Times,serif" font-size="14.00">_layout</text>
</g>
<!-- ApplicationController&#45;&gt;MailerController -->
<g id="edge4" class="edge"><title>ApplicationController&#45;&gt;MailerController</title>
<path fill="none" stroke="black" d="M308.089,-310.575C328.822,-327.633 351.964,-346.672 372.345,-363.44"/>
</g>
<!-- VotesController -->
<g id="node7" class="node"><title>VotesController</title>
<path fill="none" stroke="black" d="M199.605,-432.815C199.605,-432.815 280.007,-432.815 280.007,-432.815 286.007,-432.815 292.007,-438.815 292.007,-444.815 292.007,-444.815 292.007,-519.215 292.007,-519.215 292.007,-525.215 286.007,-531.215 280.007,-531.215 280.007,-531.215 199.605,-531.215 199.605,-531.215 193.605,-531.215 187.605,-525.215 187.605,-519.215 187.605,-519.215 187.605,-444.815 187.605,-444.815 187.605,-438.815 193.605,-432.815 199.605,-432.815"/>
<text text-anchor="middle" x="239.806" y="-513.215" font-family="Times,serif" font-size="14.00">VotesController</text>
<polyline fill="none" stroke="black" points="187.605,-506.415 292.007,-506.415 "/>
<text text-anchor="start" x="195.605" y="-488.415" font-family="Times,serif" font-size="14.00">create</text>
<polyline fill="none" stroke="black" points="187.605,-481.615 292.007,-481.615 "/>
<polyline fill="none" stroke="black" points="187.605,-457.615 292.007,-457.615 "/>
<text text-anchor="start" x="195.605" y="-439.615" font-family="Times,serif" font-size="14.00">_layout</text>
</g>
<!-- ApplicationController&#45;&gt;VotesController -->
<g id="edge5" class="edge"><title>ApplicationController&#45;&gt;VotesController</title>
<path fill="none" stroke="black" d="M246.349,-310.579C244.963,-346.911 243.084,-396.146 241.695,-432.532"/>
</g>
</g>
</svg>
