<?xml version="1.0" encoding="UTF-8" standalone="no"?>
<!DOCTYPE svg PUBLIC "-//W3C//DTD SVG 1.1//EN"
 "http://www.w3.org/Graphics/SVG/1.1/DTD/svg11.dtd">
<!-- Generated by graphviz version 2.30.1 (20130530.1935)
 -->
<!-- Title: models_diagram Pages: 1 -->
<svg width="365pt" height="844pt"
 viewBox="0.00 0.00 365.00 844.00" xmlns="http://www.w3.org/2000/svg" xmlns:xlink="http://www.w3.org/1999/xlink">
<g id="graph0" class="graph" transform="scale(1 1) rotate(0) translate(4 840)">
<title>models_diagram</title>
<polygon fill="white" stroke="white" points="-4,5 -4,-840 362,-840 362,5 -4,5"/>
<!-- _diagram_info -->
<g id="node1" class="node"><title>_diagram_info</title>
<text text-anchor="start" x="7.31226" y="-811" font-family="Times,serif" font-size="13.00">Models diagram</text>
<text text-anchor="start" x="7.31226" y="-795.4" font-family="Times,serif" font-size="13.00">Date: May 30 2013 &#45; 16:53</text>
<text text-anchor="start" x="7.31226" y="-779.8" font-family="Times,serif" font-size="13.00">Migration version: 20130507014339</text>
<text text-anchor="start" x="7.31226" y="-764.2" font-family="Times,serif" font-size="13.00">Generated by RailRoady 1.1.0</text>
<text text-anchor="start" x="7.31226" y="-748.6" font-family="Times,serif" font-size="13.00">http://railroady.prestonlee.com</text>
</g>
<!-- Battle -->
<g id="node2" class="node"><title>Battle</title>
<path fill="none" stroke="black" d="M171.829,-205C171.829,-205 304.171,-205 304.171,-205 310.171,-205 316.171,-211 316.171,-217 316.171,-217 316.171,-377 316.171,-377 316.171,-383 310.171,-389 304.171,-389 304.171,-389 171.829,-389 171.829,-389 165.829,-389 159.829,-383 159.829,-377 159.829,-377 159.829,-217 159.829,-217 159.829,-211 165.829,-205 171.829,-205"/>
<text text-anchor="middle" x="238" y="-371" font-family="Times,serif" font-size="14.00">Battle</text>
<polyline fill="none" stroke="black" points="159.829,-364.2 316.171,-364.2 "/>
<text text-anchor="start" x="167.829" y="-346.2" font-family="Times,serif" font-size="14.00">id :integer</text>
<text text-anchor="start" x="167.829" y="-329.4" font-family="Times,serif" font-size="14.00">contester1 :integer</text>
<text text-anchor="start" x="167.829" y="-312.6" font-family="Times,serif" font-size="14.00">contester2 :integer</text>
<text text-anchor="start" x="167.829" y="-295.8" font-family="Times,serif" font-size="14.00">votes_contester1 :integer</text>
<text text-anchor="start" x="167.829" y="-279" font-family="Times,serif" font-size="14.00">votes_contester2 :integer</text>
<text text-anchor="start" x="167.829" y="-262.2" font-family="Times,serif" font-size="14.00">total_votes :integer</text>
<text text-anchor="start" x="167.829" y="-245.4" font-family="Times,serif" font-size="14.00">created_at :datetime</text>
<text text-anchor="start" x="167.829" y="-228.6" font-family="Times,serif" font-size="14.00">updated_at :datetime</text>
<text text-anchor="start" x="167.829" y="-211.8" font-family="Times,serif" font-size="14.00">category_id :integer</text>
</g>
<!-- Vote -->
<g id="node6" class="node"><title>Vote</title>
<path fill="none" stroke="black" d="M183.495,-0.4C183.495,-0.4 292.505,-0.4 292.505,-0.4 298.505,-0.4 304.505,-6.4 304.505,-12.4 304.505,-12.4 304.505,-155.6 304.505,-155.6 304.505,-161.6 298.505,-167.6 292.505,-167.6 292.505,-167.6 183.495,-167.6 183.495,-167.6 177.495,-167.6 171.495,-161.6 171.495,-155.6 171.495,-155.6 171.495,-12.4 171.495,-12.4 171.495,-6.4 177.495,-0.4 183.495,-0.4"/>
<text text-anchor="middle" x="238" y="-149.6" font-family="Times,serif" font-size="14.00">Vote</text>
<polyline fill="none" stroke="black" points="171.495,-142.8 304.505,-142.8 "/>
<text text-anchor="start" x="179.495" y="-124.8" font-family="Times,serif" font-size="14.00">id :integer</text>
<text text-anchor="start" x="179.495" y="-108" font-family="Times,serif" font-size="14.00">character_id :integer</text>
<text text-anchor="start" x="179.495" y="-91.2" font-family="Times,serif" font-size="14.00">contest_id :integer</text>
<text text-anchor="start" x="179.495" y="-74.4" font-family="Times,serif" font-size="14.00">created_at :datetime</text>
<text text-anchor="start" x="179.495" y="-57.6" font-family="Times,serif" font-size="14.00">updated_at :datetime</text>
<text text-anchor="start" x="179.495" y="-40.8" font-family="Times,serif" font-size="14.00">user_id :integer</text>
<text text-anchor="start" x="179.495" y="-24" font-family="Times,serif" font-size="14.00">battle_id :integer</text>
<text text-anchor="start" x="179.495" y="-7.2" font-family="Times,serif" font-size="14.00">ip :string</text>
</g>
<!-- Battle&#45;&gt;Vote -->
<g id="edge1" class="edge"><title>Battle&#45;&gt;Vote</title>
<path fill="none" stroke="#b54a26" d="M238,-196.83C238,-190.591 238,-184.322 238,-178.111"/>
<ellipse fill="none" stroke="#b54a26" cx="238" cy="-200.986" rx="4" ry="4"/>
<polygon fill="#b54a26" stroke="#b54a26" points="238,-177.73 242.5,-167.73 238,-172.73 238,-167.73 238,-167.73 238,-167.73 238,-172.73 233.5,-167.73 238,-177.73 238,-177.73"/>
</g>
<!-- Category -->
<g id="node3" class="node"><title>Category</title>
<path fill="none" stroke="black" d="M141.495,-580.6C141.495,-580.6 250.505,-580.6 250.505,-580.6 256.505,-580.6 262.505,-586.6 262.505,-592.6 262.505,-592.6 262.505,-685.4 262.505,-685.4 262.505,-691.4 256.505,-697.4 250.505,-697.4 250.505,-697.4 141.495,-697.4 141.495,-697.4 135.495,-697.4 129.495,-691.4 129.495,-685.4 129.495,-685.4 129.495,-592.6 129.495,-592.6 129.495,-586.6 135.495,-580.6 141.495,-580.6"/>
<text text-anchor="middle" x="196" y="-679.4" font-family="Times,serif" font-size="14.00">Category</text>
<polyline fill="none" stroke="black" points="129.495,-672.6 262.505,-672.6 "/>
<text text-anchor="start" x="137.495" y="-654.6" font-family="Times,serif" font-size="14.00">id :integer</text>
<text text-anchor="start" x="137.495" y="-637.8" font-family="Times,serif" font-size="14.00">name :string</text>
<text text-anchor="start" x="137.495" y="-621" font-family="Times,serif" font-size="14.00">contest_id :integer</text>
<text text-anchor="start" x="137.495" y="-604.2" font-family="Times,serif" font-size="14.00">created_at :datetime</text>
<text text-anchor="start" x="137.495" y="-587.4" font-family="Times,serif" font-size="14.00">updated_at :datetime</text>
</g>
<!-- Character -->
<g id="node4" class="node"><title>Character</title>
<path fill="none" stroke="black" d="M88.4946,-426.6C88.4946,-426.6 197.505,-426.6 197.505,-426.6 203.505,-426.6 209.505,-432.6 209.505,-438.6 209.505,-438.6 209.505,-531.4 209.505,-531.4 209.505,-537.4 203.505,-543.4 197.505,-543.4 197.505,-543.4 88.4946,-543.4 88.4946,-543.4 82.4946,-543.4 76.4946,-537.4 76.4946,-531.4 76.4946,-531.4 76.4946,-438.6 76.4946,-438.6 76.4946,-432.6 82.4946,-426.6 88.4946,-426.6"/>
<text text-anchor="middle" x="143" y="-525.4" font-family="Times,serif" font-size="14.00">Character</text>
<polyline fill="none" stroke="black" points="76.4946,-518.6 209.505,-518.6 "/>
<text text-anchor="start" x="84.4946" y="-500.6" font-family="Times,serif" font-size="14.00">id :integer</text>
<text text-anchor="start" x="84.4946" y="-483.8" font-family="Times,serif" font-size="14.00">name :string</text>
<text text-anchor="start" x="84.4946" y="-467" font-family="Times,serif" font-size="14.00">created_at :datetime</text>
<text text-anchor="start" x="84.4946" y="-450.2" font-family="Times,serif" font-size="14.00">updated_at :datetime</text>
<text text-anchor="start" x="84.4946" y="-433.4" font-family="Times,serif" font-size="14.00">category_id :integer</text>
</g>
<!-- Category&#45;&gt;Character -->
<g id="edge2" class="edge"><title>Category&#45;&gt;Character</title>
<path fill="none" stroke="#4fe228" d="M173.265,-572.798C170.986,-566.262 168.669,-559.617 166.383,-553.062"/>
<ellipse fill="none" stroke="#4fe228" cx="174.646" cy="-576.758" rx="4.00001" ry="4.00001"/>
<polygon fill="#4fe228" stroke="#4fe228" points="166.358,-552.988 167.314,-542.064 164.712,-548.267 163.065,-543.546 163.065,-543.546 163.065,-543.546 164.712,-548.267 158.816,-545.028 166.358,-552.988 166.358,-552.988"/>
</g>
<!-- Category&#45;&gt;Battle -->
<g id="edge3" class="edge"><title>Category&#45;&gt;Battle</title>
<path fill="none" stroke="#082236" d="M212.656,-572.433C214.685,-562.938 216.55,-553.249 218,-544 225.404,-496.774 230.153,-443.992 233.155,-399.464"/>
<ellipse fill="none" stroke="#082236" cx="211.776" cy="-576.443" rx="4.00001" ry="4.00001"/>
<polygon fill="#082236" stroke="#082236" points="233.173,-399.195 238.316,-389.509 233.499,-394.205 233.825,-389.216 233.825,-389.216 233.825,-389.216 233.499,-394.205 229.335,-388.922 233.173,-399.195 233.173,-399.195"/>
</g>
<!-- Character&#45;&gt;Battle -->
<g id="edge4" class="edge"><title>Character&#45;&gt;Battle</title>
<path fill="none" stroke="#6e62d4" d="M176.147,-419.102C179.63,-412.283 183.226,-405.242 186.851,-398.145"/>
<ellipse fill="none" stroke="#6e62d4" cx="174.227" cy="-422.86" rx="4.00002" ry="4.00002"/>
<polygon fill="#6e62d4" stroke="#6e62d4" points="186.902,-398.044 195.459,-391.185 189.177,-393.591 191.451,-389.138 191.451,-389.138 191.451,-389.138 189.177,-393.591 187.443,-387.091 186.902,-398.044 186.902,-398.044"/>
</g>
<!-- Character&#45;&gt;Vote -->
<g id="edge5" class="edge"><title>Character&#45;&gt;Vote</title>
<path fill="none" stroke="#0c2899" d="M134.117,-418.466C128.741,-360.446 126.924,-274.306 151,-204 154.822,-192.84 160.088,-181.841 166.154,-171.306"/>
<ellipse fill="none" stroke="#0c2899" cx="134.508" cy="-422.481" rx="4" ry="4"/>
<polygon fill="#0c2899" stroke="#0c2899" points="166.257,-171.135 175.277,-164.898 168.84,-166.854 171.424,-162.573 171.424,-162.573 171.424,-162.573 168.84,-166.854 167.571,-160.248 166.257,-171.135 166.257,-171.135"/>
</g>
<!-- Contest -->
<g id="node5" class="node"><title>Contest</title>
<path fill="none" stroke="black" d="M236.495,-735C236.495,-735 345.505,-735 345.505,-735 351.505,-735 357.505,-741 357.505,-747 357.505,-747 357.505,-823 357.505,-823 357.505,-829 351.505,-835 345.505,-835 345.505,-835 236.495,-835 236.495,-835 230.495,-835 224.495,-829 224.495,-823 224.495,-823 224.495,-747 224.495,-747 224.495,-741 230.495,-735 236.495,-735"/>
<text text-anchor="middle" x="291" y="-817" font-family="Times,serif" font-size="14.00">Contest</text>
<polyline fill="none" stroke="black" points="224.495,-810.2 357.505,-810.2 "/>
<text text-anchor="start" x="232.495" y="-792.2" font-family="Times,serif" font-size="14.00">id :integer</text>
<text text-anchor="start" x="232.495" y="-775.4" font-family="Times,serif" font-size="14.00">name :string</text>
<text text-anchor="start" x="232.495" y="-758.6" font-family="Times,serif" font-size="14.00">created_at :datetime</text>
<text text-anchor="start" x="232.495" y="-741.8" font-family="Times,serif" font-size="14.00">updated_at :datetime</text>
</g>
<!-- Contest&#45;&gt;Category -->
<g id="edge6" class="edge"><title>Contest&#45;&gt;Category</title>
<path fill="none" stroke="#d5dd52" d="M254.069,-728.02C249.031,-720.383 243.826,-712.493 238.696,-704.718"/>
<ellipse fill="none" stroke="#d5dd52" cx="256.369" cy="-731.507" rx="4.00002" ry="4.00002"/>
<ellipse fill="#d5dd52" stroke="#d5dd52" cx="236.216" cy="-700.959" rx="4.00002" ry="4.00002"/>
</g>
<!-- Contest&#45;&gt;Battle -->
<g id="edge7" class="edge"><title>Contest&#45;&gt;Battle</title>
<path fill="none" stroke="#aaadcc" d="M285.501,-724.892C281.638,-684.149 276.243,-628.764 271,-580 264.552,-520.03 256.729,-452.961 250.318,-399.281"/>
<polygon fill="#aaadcc" stroke="#aaadcc" points="285.508,-724.966 281.969,-735.346 285.978,-729.944 286.449,-734.922 286.449,-734.922 286.449,-734.922 285.978,-729.944 290.929,-734.498 285.508,-724.966 285.508,-724.966"/>
<polygon fill="#aaadcc" stroke="#aaadcc" points="250.285,-399.004 253.565,-388.54 249.691,-394.039 249.097,-389.074 249.097,-389.074 249.097,-389.074 249.691,-394.039 244.629,-389.609 250.285,-399.004 250.285,-399.004"/>
</g>
<!-- Contest&#45;&gt;Vote -->
<g id="edge8" class="edge"><title>Contest&#45;&gt;Vote</title>
<path fill="none" stroke="#2459b0" d="M307.91,-726.678C336.309,-620.511 384.89,-387.395 325,-204 321.276,-192.596 315.999,-181.379 309.862,-170.662"/>
<ellipse fill="none" stroke="#2459b0" cx="306.78" cy="-730.853" rx="4.00001" ry="4.00001"/>
<polygon fill="#2459b0" stroke="#2459b0" points="309.676,-170.353 308.376,-159.465 307.098,-166.069 304.52,-161.785 304.52,-161.785 304.52,-161.785 307.098,-166.069 300.665,-164.105 309.676,-170.353 309.676,-170.353"/>
</g>
</g>
</svg>
