<?xml version="1.0" encoding="UTF-8" standalone="no"?>
<!DOCTYPE svg PUBLIC "-//W3C//DTD SVG 1.1//EN"
 "http://www.w3.org/Graphics/SVG/1.1/DTD/svg11.dtd">
<!-- Generated by graphviz version 2.30.1 (20130530.1935)
 -->
<!-- Title: models_diagram Pages: 1 -->
<svg width="313pt" height="382pt"
 viewBox="0.00 0.00 313.00 382.00" xmlns="http://www.w3.org/2000/svg" xmlns:xlink="http://www.w3.org/1999/xlink">
<g id="graph0" class="graph" transform="scale(1 1) rotate(0) translate(4 378)">
<title>models_diagram</title>
<polygon fill="white" stroke="white" points="-4,5 -4,-378 310,-378 310,5 -4,5"/>
<!-- _diagram_info -->
<g id="node1" class="node"><title>_diagram_info</title>
<text text-anchor="start" x="7.31226" y="-357" font-family="Times,serif" font-size="13.00">Models diagram</text>
<text text-anchor="start" x="7.31226" y="-341.4" font-family="Times,serif" font-size="13.00">Date: May 30 2013 &#45; 16:53</text>
<text text-anchor="start" x="7.31226" y="-325.8" font-family="Times,serif" font-size="13.00">Migration version: 20130507014339</text>
<text text-anchor="start" x="7.31226" y="-310.2" font-family="Times,serif" font-size="13.00">Generated by RailRoady 1.1.0</text>
<text text-anchor="start" x="7.31226" y="-294.6" font-family="Times,serif" font-size="13.00">http://railroady.prestonlee.com</text>
</g>
<!-- Battle -->
<g id="node2" class="node"><title>Battle</title>
<ellipse fill="none" stroke="black" cx="227" cy="-90" rx="34.1487" ry="18"/>
<text text-anchor="middle" x="227" y="-84.4" font-family="Times,serif" font-size="14.00">Battle</text>
</g>
<!-- Vote -->
<g id="node6" class="node"><title>Vote</title>
<ellipse fill="none" stroke="black" cx="227" cy="-18" rx="28.3445" ry="18"/>
<text text-anchor="middle" x="227" y="-12.4" font-family="Times,serif" font-size="14.00">Vote</text>
</g>
<!-- Battle&#45;&gt;Vote -->
<g id="edge1" class="edge"><title>Battle&#45;&gt;Vote</title>
<path fill="none" stroke="#6ec780" d="M227,-63.6398C227,-58.0629 227,-52.1319 227,-46.4761"/>
<ellipse fill="none" stroke="#6ec780" cx="227" cy="-67.6966" rx="4" ry="4"/>
<polygon fill="#6ec780" stroke="#6ec780" points="227,-46.1043 231.5,-36.1043 227,-41.1043 227,-36.1043 227,-36.1043 227,-36.1043 227,-41.1043 222.5,-36.1044 227,-46.1043 227,-46.1043"/>
</g>
<!-- Category -->
<g id="node3" class="node"><title>Category</title>
<ellipse fill="none" stroke="black" cx="191" cy="-234" rx="46.1519" ry="18"/>
<text text-anchor="middle" x="191" y="-228.4" font-family="Times,serif" font-size="14.00">Category</text>
</g>
<!-- Character -->
<g id="node4" class="node"><title>Character</title>
<ellipse fill="none" stroke="black" cx="150" cy="-162" rx="48.3481" ry="18"/>
<text text-anchor="middle" x="150" y="-156.4" font-family="Times,serif" font-size="14.00">Character</text>
</g>
<!-- Category&#45;&gt;Character -->
<g id="edge2" class="edge"><title>Category&#45;&gt;Character</title>
<path fill="none" stroke="#557eda" d="M176.941,-208.998C173.07,-202.387 168.856,-195.194 164.937,-188.502"/>
<ellipse fill="none" stroke="#557eda" cx="179.053" cy="-212.603" rx="4.00002" ry="4.00002"/>
<polygon fill="#557eda" stroke="#557eda" points="164.888,-188.418 163.717,-177.515 162.361,-184.103 159.834,-179.789 159.834,-179.789 159.834,-179.789 162.361,-184.103 155.951,-182.063 164.888,-188.418 164.888,-188.418"/>
</g>
<!-- Category&#45;&gt;Battle -->
<g id="edge3" class="edge"><title>Category&#45;&gt;Battle</title>
<path fill="none" stroke="#1a0dbb" d="M198.899,-208.174C201.608,-199.321 204.567,-189.252 207,-180 212.403,-159.452 217.635,-135.999 221.393,-118.328"/>
<ellipse fill="none" stroke="#1a0dbb" cx="197.687" cy="-212.082" rx="4.00001" ry="4.00001"/>
<polygon fill="#1a0dbb" stroke="#1a0dbb" points="221.475,-117.937 227.933,-109.075 222.502,-113.044 223.53,-108.151 223.53,-108.151 223.53,-108.151 222.502,-113.044 219.126,-107.226 221.475,-117.937 221.475,-117.937"/>
</g>
<!-- Character&#45;&gt;Battle -->
<g id="edge4" class="edge"><title>Character&#45;&gt;Battle</title>
<path fill="none" stroke="#885a44" d="M173.514,-139.623C182.901,-131.09 193.696,-121.277 203.118,-112.711"/>
<ellipse fill="none" stroke="#885a44" cx="170.432" cy="-142.425" rx="4.00002" ry="4.00002"/>
<polygon fill="#885a44" stroke="#885a44" points="203.25,-112.591 213.677,-109.194 206.95,-109.227 210.65,-105.864 210.65,-105.864 210.65,-105.864 206.95,-109.227 207.623,-102.534 203.25,-112.591 203.25,-112.591"/>
</g>
<!-- Character&#45;&gt;Vote -->
<g id="edge5" class="edge"><title>Character&#45;&gt;Vote</title>
<path fill="none" stroke="#fab243" d="M157.213,-135.96C163.058,-117.58 172.245,-92.3761 184,-72 190.165,-61.3132 198.429,-50.5517 206.064,-41.5444"/>
<ellipse fill="none" stroke="#fab243" cx="155.946" cy="-140.06" rx="4.00001" ry="4.00001"/>
<polygon fill="#fab243" stroke="#fab243" points="206.238,-41.3454 216.208,-36.7802 209.53,-37.5816 212.821,-33.8178 212.821,-33.8178 212.821,-33.8178 209.53,-37.5816 209.434,-30.8555 206.238,-41.3454 206.238,-41.3454"/>
</g>
<!-- Contest -->
<g id="node5" class="node"><title>Contest</title>
<ellipse fill="none" stroke="black" cx="265" cy="-331" rx="40.3171" ry="18"/>
<text text-anchor="middle" x="265" y="-325.4" font-family="Times,serif" font-size="14.00">Contest</text>
</g>
<!-- Contest&#45;&gt;Category -->
<g id="edge6" class="edge"><title>Contest&#45;&gt;Category</title>
<path fill="none" stroke="#aca08c" d="M247.392,-307.395C235.787,-292.497 220.634,-273.043 208.958,-258.054"/>
<ellipse fill="none" stroke="#aca08c" cx="249.989" cy="-310.729" rx="4.00002" ry="4.00002"/>
<ellipse fill="#aca08c" stroke="#aca08c" cx="206.321" cy="-254.669" rx="4.00002" ry="4.00002"/>
</g>
<!-- Contest&#45;&gt;Battle -->
<g id="edge7" class="edge"><title>Contest&#45;&gt;Battle</title>
<path fill="none" stroke="#d291eb" d="M260.675,-302.796C253.358,-256.781 238.625,-164.113 231.315,-118.141"/>
<polygon fill="#d291eb" stroke="#d291eb" points="260.697,-302.936 257.823,-313.518 261.482,-307.874 262.267,-312.812 262.267,-312.812 262.267,-312.812 261.482,-307.874 266.711,-312.105 260.697,-302.936 260.697,-302.936"/>
<polygon fill="#d291eb" stroke="#d291eb" points="231.278,-117.908 234.152,-107.326 230.493,-112.971 229.708,-108.033 229.708,-108.033 229.708,-108.033 230.493,-112.971 225.264,-108.739 231.278,-117.908 231.278,-117.908"/>
</g>
<!-- Contest&#45;&gt;Vote -->
<g id="edge8" class="edge"><title>Contest&#45;&gt;Vote</title>
<path fill="none" stroke="#9ec60c" d="M271.1,-305.216C281.483,-258.145 298.817,-153.257 270,-72 265.834,-60.2533 257.832,-49.2118 249.85,-40.2792"/>
<ellipse fill="none" stroke="#9ec60c" cx="270.204" cy="-309.151" rx="4.00001" ry="4.00001"/>
<polygon fill="#9ec60c" stroke="#9ec60c" points="249.827,-40.2551 246.198,-29.9069 246.382,-36.6313 242.937,-33.0075 242.937,-33.0075 242.937,-33.0075 246.382,-36.6313 239.675,-36.108 249.827,-40.2551 249.827,-40.2551"/>
</g>
</g>
</svg>
